<?xml version="1.0" encoding="UTF-8"?><svg id="a" xmlns="http://www.w3.org/2000/svg" width="680.04" height="192.92" viewBox="0 0 680.04 192.92"><defs><style>.b{fill:#9a63ff;}</style></defs><g><path class="b" d="M199.04,0h32.9c17.27,0,25.14,10.57,25.14,27.14,0,6.81-1.53,13.04-7.75,18.56,6.7,6.34,7.75,12.57,7.75,21.27,0,15.39-10.22,24.44-25.14,24.44h-32.9V0Zm11.75,39.83h21.15c8.46,0,13.39-3.76,13.39-12.69,0-9.87-2.7-15.39-13.39-15.39h-21.15v28.08Zm0,39.83h21.15c8.46,0,13.39-3.76,13.39-12.69,0-9.87-2.7-15.39-13.39-15.39h-21.15v28.08Z"/><path class="b" d="M318.52,79.66h17.27c3.05,0,5.88,1.65,5.88,5.87s-2.82,5.87-5.88,5.87h-46.29c-3.05,0-5.87-1.65-5.87-5.87s2.82-5.87,5.87-5.87h17.27V11.75h-17.27c-3.05,0-5.87-1.65-5.87-5.87s2.82-5.87,5.87-5.87h46.29c3.05,0,5.88,1.65,5.88,5.87s-2.82,5.87-5.88,5.87h-17.27V79.66Z"/><path class="b" d="M414.63,5.99c0-3.76,1.64-5.88,5.87-5.88s5.88,2.12,5.88,5.88V91.53h-15.51l-30.67-70.5v-.12h-.23V85.53c0,3.76-1.65,5.87-5.88,5.87s-5.88-2.11-5.88-5.87V0h15.51l30.67,71.32h.12l.12-65.33Z"/><path class="b" d="M475.84,5.99c.94-3.17,2.23-5.99,5.99-5.99s5.29,2.94,6.11,5.99l22.68,79.54c.82,2.82-2.35,5.87-5.64,5.87-3.64,0-5.52-3.05-6.34-5.87l-4.35-14.1h-25.03l-4.46,14.1c-.82,2.82-2.7,5.87-6.34,5.87-3.29,0-6.46-3.05-5.64-5.87L475.84,5.99Zm6.11,21.85h-.24l-9.16,31.84h18.45l-9.05-31.84Z"/><path class="b" d="M549.15,85.53c0,3.76-1.65,5.87-5.88,5.87s-5.88-2.11-5.88-5.87V0h39.48c9.28,0,18.56,6.58,18.56,17.04v8.11c0,11.04-9.17,16.68-18.56,16.68h-10.81l26.44,37.83c1.29,1.76,2.94,4,2.94,6.23,0,3.29-2.7,5.52-5.99,5.52-2.35,0-3.88-1.41-5.17-3.29l-32.43-46.29h-2.7v43.71Zm0-55.46h26.08c3.29,0,8.46-.23,8.46-4.94v-8.11c0-4.7-4.82-5.29-8.34-5.29h-26.2V30.08Z"/><path class="b" d="M656.89,85.53c0,3.76-1.64,5.87-5.87,5.87s-5.88-2.11-5.88-5.87V47.94l-23.15-30.08V5.87c0-3.76,1.65-5.87,5.88-5.87s5.88,2.11,5.88,5.87v7.99l17.27,22.44,17.27-22.44V5.87c0-3.76,1.65-5.87,5.88-5.87s5.88,2.11,5.88,5.87v11.98l-23.15,30.08v37.6Z"/><path class="b" d="M210.79,187.05c0,3.76-1.65,5.87-5.87,5.87s-5.88-2.11-5.88-5.87V101.51h39.01c5.4,0,9.28,.82,13.51,4.82,5.05,4.7,5.52,9.05,5.52,15.39v15.98c0,5.99-.47,10.22-4.82,15.04-4.58,5.17-9.4,5.64-15.74,5.64h-25.73v28.67Zm0-40.42h26.08c6.93,0,8.46-1.76,8.46-8.46v-16.45c0-6.7-1.53-8.46-8.46-8.46h-26.08v33.37Z"/><path class="b" d="M335.79,181.17c3.05,0,5.88,1.64,5.88,5.88s-2.82,5.87-5.88,5.87h-52.17V107.39c0-3.76,1.64-5.87,5.87-5.87s5.87,2.11,5.87,5.87v73.79h40.42Z"/><path class="b" d="M420.39,181.17c3.05,0,5.88,1.64,5.88,5.88s-2.82,5.87-5.88,5.87h-52.17V101.51h52.17c3.05,0,5.88,1.65,5.88,5.87s-2.82,5.87-5.88,5.87h-40.42v28.08h17.27c3.05,0,5.87,1.64,5.87,5.88s-2.82,5.87-5.87,5.87h-17.27v28.08h40.42Z"/><path class="b" d="M475.84,107.51c.94-3.17,2.23-5.99,5.99-5.99s5.29,2.94,6.11,5.99l22.68,79.54c.82,2.82-2.35,5.87-5.64,5.87-3.64,0-5.52-3.05-6.34-5.87l-4.35-14.1h-25.03l-4.46,14.1c-.82,2.82-2.7,5.87-6.34,5.87-3.29,0-6.46-3.05-5.64-5.87l23.03-79.54Zm6.11,21.85h-.24l-9.16,31.84h18.45l-9.05-31.84Z"/><path class="b" d="M591.33,169.89c2.35,3.05,4.11,5.76,4.11,9.75,0,8.81-6.7,13.28-14.8,13.28h-25.85c-4.46,0-8.34-.82-11.87-3.76-3.17-2.58-5.52-6.81-5.52-10.93,0-3.76,2.12-7.05,6.23-7.05,3.41,0,5.52,2.82,5.52,5.99,0,3.53,1.88,4,5.17,4h25.5c.94,0,3.88,.35,3.88-1.41,0-.94-1.64-2.7-2.11-3.41l-40.3-51.81c-2.47-3.17-3.88-5.52-3.88-9.63,0-4.7,2.23-8.69,6.23-11.28,3.29-2.11,5.99-2.11,9.75-2.11h24.91c4.46,0,8.22,.94,11.63,3.88,3.05,2.7,5.52,7.05,5.52,11.16,0,3.76-1.88,6.81-6.11,6.81-3.52,0-5.64-2.23-5.64-5.52,0-4-2-4.58-5.64-4.58h-24.91c-1.29,0-3.99-.35-3.99,1.65,0,1.06,1.29,2.47,1.76,3.17l40.42,51.81Z"/><path class="b" d="M674.16,181.17c3.05,0,5.88,1.64,5.88,5.88s-2.82,5.87-5.88,5.87h-52.17V101.51h52.17c3.05,0,5.88,1.65,5.88,5.87s-2.82,5.87-5.88,5.87h-40.42v28.08h17.27c3.05,0,5.87,1.64,5.87,5.88s-2.82,5.87-5.87,5.87h-17.27v28.08h40.42Z"/></g><g><path class="b" d="M24.91,42.87v-12.77c0-1.83,.82-3.16,3.16-3.16s3.16,1.33,3.16,3.16v15.93c0,2.28-1.52,3.16-3.16,3.16H3.16c-1.64,0-3.16-.89-3.16-3.16s1.52-3.16,3.16-3.16H12.45V6.32H3.16c-1.64,0-3.16-.89-3.16-3.16S1.52,0,3.16,0h15.62V42.87h6.13Z"/><path class="b" d="M70.43,0c3.48,0,6.32,2.84,6.32,6.32V42.87c0,3.54-2.72,6.32-6.32,6.32h-18.59c-3.6,0-6.32-2.78-6.32-6.32V6.32c0-3.48,2.84-6.32,6.32-6.32h18.59Zm0,42.87V6.32h-18.59V42.87h18.59Z"/><path class="b" d="M115.96,0c3.48,0,6.32,2.84,6.32,6.32V42.87c0,3.54-2.72,6.32-6.32,6.32h-18.59c-3.6,0-6.32-2.78-6.32-6.32V6.32c0-3.48,2.84-6.32,6.32-6.32h18.59Zm0,42.87V6.32h-18.59V42.87h18.59Z"/><path class="b" d="M161.48,42.87v-12.77c0-1.83,.82-3.16,3.16-3.16s3.16,1.33,3.16,3.16v15.93c0,2.28-1.52,3.16-3.16,3.16h-24.91c-1.64,0-3.16-.89-3.16-3.16s1.52-3.16,3.16-3.16h9.29V6.32h-9.29c-1.64,0-3.16-.89-3.16-3.16s1.52-3.16,3.16-3.16h15.62V42.87h6.13Z"/><path class="b" d="M24.91,114.73v-12.77c0-1.83,.82-3.16,3.16-3.16s3.16,1.33,3.16,3.16v15.93c0,2.28-1.52,3.16-3.16,3.16H3.16c-1.64,0-3.16-.89-3.16-3.16s1.52-3.16,3.16-3.16H12.45v-36.54H3.16c-1.64,0-3.16-.89-3.16-3.16s1.52-3.16,3.16-3.16h15.62v42.87h6.13Z"/><path class="b" d="M70.43,71.87c3.48,0,6.32,2.84,6.32,6.32v36.54c0,3.54-2.72,6.32-6.32,6.32h-18.59c-3.6,0-6.32-2.78-6.32-6.32v-36.54c0-3.48,2.84-6.32,6.32-6.32h18.59Zm0,42.87v-36.54h-18.59v36.54h18.59Z"/><path class="b" d="M115.96,114.73v-12.77c0-1.83,.82-3.16,3.16-3.16s3.16,1.33,3.16,3.16v15.93c0,2.28-1.52,3.16-3.16,3.16h-24.91c-1.64,0-3.16-.89-3.16-3.16s1.52-3.16,3.16-3.16h9.29v-36.54h-9.29c-1.64,0-3.16-.89-3.16-3.16s1.52-3.16,3.16-3.16h15.62v42.87h6.13Z"/><path class="b" d="M161.48,71.87c3.48,0,6.32,2.84,6.32,6.32v36.54c0,3.54-2.72,6.32-6.32,6.32h-18.59c-3.6,0-6.32-2.78-6.32-6.32v-36.54c0-3.48,2.84-6.32,6.32-6.32h18.59Zm0,42.87v-36.54h-18.59v36.54h18.59Z"/><path class="b" d="M24.91,186.6v-12.77c0-1.83,.82-3.16,3.16-3.16s3.16,1.33,3.16,3.16v15.93c0,2.28-1.52,3.16-3.16,3.16H3.16c-1.64,0-3.16-.89-3.16-3.16s1.52-3.16,3.16-3.16H12.45v-36.54H3.16c-1.64,0-3.16-.89-3.16-3.16s1.52-3.16,3.16-3.16h15.62v42.87h6.13Z"/><path class="b" d="M70.43,186.6v-12.77c0-1.83,.82-3.16,3.16-3.16s3.16,1.33,3.16,3.16v15.93c0,2.28-1.52,3.16-3.16,3.16h-24.91c-1.64,0-3.16-.89-3.16-3.16s1.52-3.16,3.16-3.16h9.29v-36.54h-9.29c-1.64,0-3.16-.89-3.16-3.16s1.52-3.16,3.16-3.16h15.62v42.87h6.13Z"/><path class="b" d="M115.96,186.6v-12.77c0-1.83,.82-3.16,3.16-3.16s3.16,1.33,3.16,3.16v15.93c0,2.28-1.52,3.16-3.16,3.16h-24.91c-1.64,0-3.16-.89-3.16-3.16s1.52-3.16,3.16-3.16h9.29v-36.54h-9.29c-1.64,0-3.16-.89-3.16-3.16s1.52-3.16,3.16-3.16h15.62v42.87h6.13Z"/><path class="b" d="M161.48,143.73c3.48,0,6.32,2.84,6.32,6.32v36.54c0,3.54-2.72,6.32-6.32,6.32h-18.59c-3.6,0-6.32-2.78-6.32-6.32v-36.54c0-3.48,2.84-6.32,6.32-6.32h18.59Zm0,42.87v-36.54h-18.59v36.54h18.59Z"/></g></svg>